<svg xmlns="http://www.w3.org/2000/svg" width="57.168" height="58.608" viewBox="0 0 57.168 58.608"><defs><style>.a{fill:#2b343b;}</style></defs><path class="a" d="M54.534,182.7,44.8,192.765l7.714,5.032,6.832-2.939-3.967-4.371Z" transform="translate(-34.115 -139.189)"/><path class="a" d="M52.166,1.152,47.5.733,44.624,0,43.157.576l1.388,2.462L43.89,5l1.886.89L47.9,4.426l1.074-1.467L48.6,5.028l2.645,2.278,1.728-1.728-1.152,2.2-1.44,4.216,2.1,1.414-2.776.576-8.2,2.907-7.673-4.216-4.976-.262-3.483,2.2,6.1,4.216-2.854,9.009.629-8.59-5.368-3.666-7.752-3.614-6.809,6.7L10.815,29.3l3.771,4.819,6.783,2.75-7.123-1.309-4.007-3.876L6.311,40.538l-4.085.236,4.269,2.645-.419,5.054L0,50.778l3.771,5.159,6.39-.733L21.317,44.179l-2.959-3.326L22.783,44l-3.509,3.352,8.171,2.331L28.6,48.133,27.288,45.2l2.383,2.828L22.7,58.608H31.87l5.368-8.8,2.8-16.97,6.652-5,9.977-11.47.5-10.894ZM37.37,19.484l-1.388,1.309.314,2.383L34.751,20.3l2.278-1.859,2.985.943Z"/><path class="a" d="M145.7,169.758l4.7,9.44,8.3-1.139-10.4-22.26Z" transform="translate(-110.518 -122.17)"/></svg>